<?xml version="1.0" encoding="UTF-8" standalone="no"?>
<svg
   height="40.957977"
   viewBox="0 -960 602.83417 819.15955"
   width="30.141708"
   version="1.1"
   id="svg4"
   sodipodi:docname="lightbulb.svg"
   xmlns:inkscape="http://www.inkscape.org/namespaces/inkscape"
   xmlns:sodipodi="http://sodipodi.sourceforge.net/DTD/sodipodi-0.dtd"
   xmlns="http://www.w3.org/2000/svg"
   xmlns:svg="http://www.w3.org/2000/svg">
  <defs
     id="defs8" />
  <sodipodi:namedview
     id="namedview6"
     pagecolor="#ffffff"
     bordercolor="#000000"
     borderopacity="0.25"
     inkscape:showpageshadow="2"
     inkscape:pageopacity="0.0"
     inkscape:pagecheckerboard="0"
     inkscape:deskcolor="#d1d1d1"
     showgrid="false" />
  <path
     d="m 301.40831,-141.98267 q -34,0 -57.5,-23.5 -23.5,-23.5 -23.5,-57.5 h 162 q 0,34 -23.5,57.5 -23.5,23.5 -57.5,23.5 z m -162,-143 v -60 h 324 v 60 z m 5,-121 q -66,-43 -104.5,-107.5 -38.5000001,-64.5 -38.5000001,-145.5 0,-122 89.0000001,-211 89,-89 211,-89 122,0 211,89 89,89 89,211 0,81 -38,145.5 -38,64.5 -105,107.5 z m 22,-60 h 271 q 48,-32 76,-83 28,-51 28,-110 0,-99 -70.5,-169.5 -70.5,-70.5 -169.5,-70.5 -99,0 -169.5,70.5 -70.5,70.5 -70.5,169.5 0,59 28,110 28,51 77,83 z m 135,0 z"
     id="path2" />
  <path
     style="fill:#ffffff;fill-opacity:1;stroke:none;stroke-width:1.25"
     d="m 297.68029,-959.94165 c -63.26812,-0.3573 -126.39246,20.91125 -175.9455,60.37871 -58.39632,45.58305 -103.85823,110.72263 -116.5649001,184.58309 -14.11269,76.31332 0.42112,159.15948 46.6414001,222.40726 25.08374,34.65792 56.51256,65.00516 92.39,88.21444 104.8291,0 209.6582,0 314.4873,0 62.55588,-39.87514 113.55024,-100.92878 133.41066,-173.25852 18.73296,-68.76028 13.033,-144.56996 -17.7637,-209.02154 -33.5362,-67.43924 -91.54522,-122.86285 -160.95124,-152.32804 -36.53142,-15.38638 -76.18506,-21.71917 -115.70402,-20.9754 z m 3.72802,63.78173 c 21.4676,-0.62546 42.78628,0.47182 63.30814,6.96797 61.46142,16.11889 113.5028,60.06908 145.24166,114.31132 22.55732,39.20258 32.12414,85.17914 29.02832,130.15382 -2.6311,68.08716 -40.65768,132.86246 -95.59108,172.614 -7.91956,8.62348 -20.2543,3.74838 -30.58322,5.00562 -81.78712,0 -163.57424,0 -245.36134,0 -56.00708,-36.41112 -95.21712,-97.89282 -102.85124,-164.25926 -0.7962,-30.70456 -2.54658,-61.85528 6.71112,-91.52524 18.03702,-65.34432 66.27406,-120.95096 126.56248,-151.25163 29.7478,-13.99824 62.44728,-23.54697 95.59814,-22.00546 2.64568,-0.004 5.29134,-0.007 7.93702,-0.0111 z"
     id="path1974" />
  <path
     style="fill:#ffffff;fill-opacity:1;stroke:none;stroke-width:1.25"
     d="m 138.61535,-345.12965 c -1.0738,19.84696 -0.144,40.04266 -0.4566,60.02198 4.72636,4.67648 14.23362,0.6688 20.74952,1.9996 101.25,0 202.5,0 303.75,0 4.67648,-4.72634 0.6688,-14.2336 1.9996,-20.7495 -0.4848,-13.7934 0.9784,-28.02302 -0.7276,-41.54298 -44.0147,-1.0676 -88.37476,-0.15 -132.52198,-0.4566 -63.75,0 -127.5,0 -191.25,0 l -1.1306,0.5332 z"
     id="path1976" />
  <path
     style="fill:#ffffff;fill-opacity:1;stroke:none;stroke-width:1.25"
     d="m 219.86535,-223.87965 c -3.74288,34.27328 21.66022,66.81996 52.95898,78.52052 17.73794,6.3649 37.65762,5.48854 55.63964,0.5834 31.83602,-10.62392 55.39348,-42.33568 55.18038,-76.09676 -0.6026,-7.6458 -12.76676,-2.01092 -18.12472,-3.73478 -48.0371,0 -96.07422,0 -144.11132,0 l -1.1306,0.5332 z"
     id="path1978" />
</svg>
